<svg height="1024" viewBox="0 0 1085 1085" width="1024" xmlns="http://www.w3.org/2000/svg" xmlns:xlink="http://www.w3.org/1999/xlink"><clipPath id="a"><path d="m0 2000h2000v-2000h-2000z"/></clipPath><g clip-path="url(#a)" fill="#ee893a" transform="matrix(1.3333333 0 0 -1.3333333 0 2666.6667)"><path d="m0 0h.026zm-83.666 7.495c10.967-12.248 29.732-13.966 32.488-14.15 2.782.176 21.478 1.803 32.513 14.15 3.592 30.725 23.334 176.771 82.936 267.103h.001c19.416 29.42 45.936 56.242 74.015 84.64 85.956 86.936 174.75 176.758 86.849 362.038-38.115-18.706-134.365-75.276-173.792-184.743-2.767-7.686-10.059-12.81-18.228-12.81h-168.596c-8.17 0-15.463 5.127-18.229 12.813-39.396 109.457-135.649 166.025-173.791 184.74-87.904-185.29.906-275.115 86.877-362.05 28.077-28.394 54.598-55.21 74.018-84.623 59.605-90.337 79.349-236.386 82.939-267.108m32.483-52.915c-.114 0-.229 0-.344.003-1.801.033-44.37 1.171-66.875 34.597-1.783 2.649-2.884 5.699-3.204 8.875-.165 1.63-17.175 164.015-77.34 255.2-17.313 26.224-42.531 51.726-69.229 78.724-88.99 89.987-199.739 201.981-85.637 423.478 4.503 8.741 14.84 12.72 24.043 9.264 6.201-2.334 148.545-57.31 207.605-202.248h141.966c59.091 144.933 201.402 199.914 207.601 202.245 9.205 3.467 19.542-.52 24.045-9.261 114.096-221.484 3.366-333.475-85.607-423.462-26.698-27.004-51.915-52.509-69.228-78.74h.002c-60.165-91.185-77.174-253.57-77.339-255.2-.321-3.181-1.426-6.239-3.214-8.89-22.539-33.411-65.099-34.549-66.9-34.582-.115-.003-.23-.003-.345-.003" transform="translate(457.6802 1233.2281)"/><path d="m0 0c-10.659 0-19.323 8.615-19.372 19.284-.049 10.701 8.584 19.415 19.285 19.465 48.714.225 69.377 14.74 83.045 29.032 1.385 1.622 2.875 3.282 4.651 5.182.07.073.139.146.21.22 6.392 6.665 13.527 12.519 21.207 17.406 10.143 6.453 21.085 11.206 32.525 14.128 26.891 6.834 56.938 7.757 78.219 7.247-6.248 13.051-18.393 29.362-41.927 41.454-5.792 2.975-9.702 8.66-10.407 15.137-.706 6.472 1.89 12.868 6.907 17.02 8.642 7.154 18.195 13.845 28.39 19.882 51.84 30.77 64.346 71.749 65.704 100.708 1.812 38.59-15.365 71.979-33.266 85.016-8.65 6.3-10.555 18.416-4.257 27.066 6.3 8.649 18.418 10.559 27.067 4.256 31.641-23.04 51.397-70.522 49.163-118.154-2.551-54.381-32.613-101.339-84.648-132.222-.479-.285-.955-.568-1.43-.856 41.165-33.699 43.852-77.161 43.958-79.304.281-5.677-1.943-11.187-6.083-15.079-4.142-3.89-9.785-5.764-15.425-5.134-.506.054-52.262 5.621-92.396-4.586-7.444-1.902-14.615-5.022-21.294-9.272-4.929-3.135-9.534-6.896-13.694-11.177-1.78-2.089-3.265-3.74-4.756-5.285-.034-.036-.068-.071-.102-.107-26.858-28.307-61.189-41.095-111.182-41.327z" transform="translate(479.5967 1332.7828)"/><path d="m0 0h-.092c-50.05.232-84.386 13.013-111.308 41.431-.025.028-.052.053-.077.081-1.457 1.506-3.035 3.252-4.701 5.202-4.156 4.281-8.765 8.047-13.706 11.203-6.66 4.224-13.843 7.352-21.295 9.259-40.101 10.196-91.883 4.634-92.402 4.576-5.647-.626-11.281 1.256-15.415 5.146s-6.361 9.397-6.08 15.069c.106 2.143 2.787 45.61 43.968 79.314-.464.281-.93.558-1.397.835-52.065 30.902-82.131 77.872-84.675 132.265-2.229 47.625 17.533 95.095 49.176 118.125 8.653 6.297 20.771 4.39 27.067-4.264 6.296-8.65 4.388-20.766-4.264-27.063-17.902-13.031-35.078-46.406-33.273-84.987 1.355-28.965 13.859-69.958 65.73-100.745 10.12-5.992 19.665-12.682 28.349-19.872 5.019-4.152 7.613-10.548 6.908-17.02-.705-6.477-4.616-12.162-10.408-15.137-23.518-12.081-35.661-28.378-41.914-41.454 21.284.513 51.332-.406 78.211-7.242 11.433-2.929 22.365-7.675 32.521-14.116 7.739-4.944 14.873-10.812 21.258-17.477.025-.027.05-.053.076-.08 1.713-1.799 3.277-3.532 4.768-5.278 13.765-14.384 34.421-28.797 83.062-29.022 10.701-.05 19.334-8.764 19.285-19.465-.049-10.669-8.715-19.284-19.372-19.284" transform="translate(333.439 1332.7828)"/><path d="m0 0s31.89 18.458 66.28 18.458c34.389 0 66.28-18.458 66.28-18.458l-14.603-84.429s-67.98-14.497-90.957-2.759c-22.976 11.737-6.407 61.436-27 87.188" transform="translate(340.2183 1309.5904)"/><path d="m0 0c-7.26 0-14.216 4.098-17.521 11.101-2.601 5.506-62.972 136.091-1.841 239.867 40.528 68.8 123.581 107.761 246.853 115.799 10.662.701 19.898-7.397 20.592-18.074.697-10.678-7.395-19.899-18.072-20.595-109.591-7.145-182.226-39.658-215.89-96.636-50.795-85.973 2.863-202.677 3.411-203.845 4.537-9.68.383-21.217-9.29-25.767-2.668-1.254-5.478-1.85-8.242-1.85" transform="translate(497.4121 1392.1802)"/><path d="m0 0c-2.771 0-5.584.598-8.255 1.859-9.67 4.562-13.814 16.095-9.264 25.768.547 1.168 54.191 117.867 3.391 203.84-33.67 56.98-106.31 89.496-215.903 96.64-10.677.697-18.769 9.917-18.073 20.596.695 10.677 9.929 18.749 20.593 18.073 123.274-8.038 206.331-46.999 246.865-115.801 61.135-103.776.78-234.355-1.82-239.865-3.305-7.006-10.27-11.11-17.534-11.11" transform="translate(315.6045 1392.1705)"/></g></svg>